# xmcd
#
# Track frame offsets:
#	150
#	14177
#	31125
#	42391
#	55089
#	73553
#	88604
#	104668
#	120683
#	134903
#	151272
#	166231
#	180197
#
# Disc length: 2595 seconds
#
# Revision: 1
# Processed by: cddbd v1.4b42PL1 Copyright (c) Steve Scherf et al.
# Submitted via: audiograbber 1.80.04
#
DISCID=af0a210d
DTITLE=Anni Filt - Singing down the moon
DYEAR=2001
DGENRE=Country
TTITLE0=Anni Filt - Ain't necessarily so
TTITLE1=Anni Filt - A womans heart
TTITLE2=Anni Filt - Long look at love
TTITLE3=Anni Filt - Awesome Austin hunk
TTITLE4=Anni Filt - Singing down the moon
TTITLE5=Anni Filt - The guy next door
TTITLE6=Anni Filt - On my way
TTITLE7=Anni Filt - Painting the rain
TTITLE8=Anni Filt - Some other place
TTITLE9=Anni Filt - A safe place to land
TTITLE10=Anni Filt - Listen to the radio
TTITLE11=Anni Filt - What a way to start a day
TTITLE12=Anni Filt - In the pale moonlight
EXTD=
EXTT0=
EXTT1=
EXTT2=
EXTT3=
EXTT4=
EXTT5=
EXTT6=
EXTT7=
EXTT8=
EXTT9=
EXTT10=
EXTT11=
EXTT12=
PLAYORDER=
